HIERARCHY
ROOT Hips
{
	OFFSET 0.000000 0.000000 0.000000
	CHANNELS 6 Xposition Yposition Zposition Zrotation Yrotation Xrotation 
	JOINT LeftUpLeg_virtual
	{
		OFFSET 0.000000 0.000000 0.000000
		CHANNELS 3 Zrotation Yrotation Xrotation
		JOINT LeftUpLeg
		{
			OFFSET 10.205400 -3.823500 0.155100
			CHANNELS 3 Zrotation Yrotation Xrotation
			JOINT LeftLeg
			{
				OFFSET 0.708757 -12.982077 0.567790
				CHANNELS 3 Zrotation Yrotation Xrotation
				JOINT LeftFoot
				{
					OFFSET -0.708756 -10.717838 -2.184338
					CHANNELS 3 Zrotation Yrotation Xrotation
					JOINT LeftToeBase
					{
						OFFSET 0.108149 -7.191104 7.560241
						CHANNELS 3 Zrotation Yrotation Xrotation
						End Site
						{
							OFFSET 0.000000 0.000000 0.000000
						}
					}
				}
			}
		}
	}
	JOINT RightUpLeg_virtual
	{
		OFFSET 0.000000 0.000000 0.000000
		CHANNELS 3 Zrotation Yrotation Xrotation
		JOINT RightUpLeg
		{
			OFFSET -10.205400 -3.823500 0.005500
			CHANNELS 3 Zrotation Yrotation Xrotation
			JOINT RightLeg
			{
				OFFSET -0.708756 -12.982134 0.610632
				CHANNELS 3 Zrotation Yrotation Xrotation
				JOINT RightFoot
				{
					OFFSET 0.708754 -10.717769 -1.945823
					CHANNELS 3 Zrotation Yrotation Xrotation
					JOINT RightToeBase
					{
						OFFSET -0.108140 -7.191069 7.372968
						CHANNELS 3 Zrotation Yrotation Xrotation
						End Site
						{
							OFFSET 0.000000 0.000000 0.000000
						}
					}
				}
			}
		}
	}
	JOINT Spine_virtual
	{
		OFFSET 0.000000 0.000000 0.000000
		CHANNELS 3 Zrotation Yrotation Xrotation
		JOINT Spine
		{
			OFFSET 0.000000 6.876099 0.125700
			CHANNELS 3 Zrotation Yrotation Xrotation
			JOINT Spine1
			{
				OFFSET 0.000000 8.022060 0.146608
				CHANNELS 3 Zrotation Yrotation Xrotation
				JOINT Spine2
				{
					OFFSET 0.000000 9.168068 0.167552
					CHANNELS 3 Zrotation Yrotation Xrotation
					JOINT Neck_virtual
					{
						OFFSET 0.000000 0.000000 0.000000
						CHANNELS 3 Zrotation Yrotation Xrotation
						JOINT Neck
						{
							OFFSET 0.000000 10.314075 0.188496
							CHANNELS 3 Zrotation Yrotation Xrotation
							JOINT Head
							{
								OFFSET 0.000000 7.643700 -2.377400
								CHANNELS 3 Zrotation Yrotation Xrotation
								End Site
								{
									OFFSET 0.000000 0.000000 0.000000
								}
							}
						}
					}
					JOINT LeftShoulder_virtual
					{
						OFFSET 0.000000 0.000000 0.000000
						CHANNELS 3 Zrotation Yrotation Xrotation
						JOINT LeftShoulder
						{
							OFFSET 4.392200 8.824978 0.174984
							CHANNELS 3 Zrotation Yrotation Xrotation
							JOINT LeftArm
							{
								OFFSET 8.771219 -2.981674 -0.026999
								CHANNELS 3 Zrotation Yrotation Xrotation
								JOINT LeftForeArm
								{
									OFFSET 8.512804 0.000000 -0.000000
									CHANNELS 3 Zrotation Yrotation Xrotation
									JOINT LeftHand
									{
										OFFSET 18.484802 0.000000 -0.000000
										CHANNELS 3 Zrotation Yrotation Xrotation
										End Site
										{
											OFFSET 0.000000 0.000000 0.000000
										}
									}
								}
							}
						}
					}
					JOINT RightShoulder_virtual
					{
						OFFSET 0.000000 0.000000 0.000000
						CHANNELS 3 Zrotation Yrotation Xrotation
						JOINT RightShoulder
						{
							OFFSET -4.392200 8.824993 0.141379
							CHANNELS 3 Zrotation Yrotation Xrotation
							JOINT RightArm
							{
								OFFSET -8.771282 -2.981682 -0.094208
								CHANNELS 3 Zrotation Yrotation Xrotation
								JOINT RightForeArm
								{
									OFFSET -8.494598 0.000000 0.000000
									CHANNELS 3 Zrotation Yrotation Xrotation
									JOINT RightHand
									{
										OFFSET -18.483803 0.000000 0.000001
										CHANNELS 3 Zrotation Yrotation Xrotation
										End Site
										{
											OFFSET 0.000000 0.000000 0.000000
										}
									}
								}
							}
						}
					}
				}
			}
		}
	}
}
MOTION
Frames: 14
Frame Time: 0.033333
-0.145688 36.478947 17.686892 -179.928042 -10.771413 179.121397 -5.467798 -8.400237 14.323424 -1.504449 0.682621 -19.277456 2.961488 13.029131 11.978007 0.732324 -0.701876 7.681043 0.000000 0.000000 0.000000 0.620835 -9.938014 12.898053 -1.340618 -12.634005 -14.341857 -8.135625 2.234132 7.086528 11.414625 5.700832 15.606861 0.000000 0.000000 0.000000 -3.829881 -6.379080 5.609688 -5.628635 9.509281 -14.285159 0.114550 -1.093174 10.577181 -0.074035 0.084215 -0.119878 0.258091 0.420678 9.699799 11.020578 -6.360594 15.220095 0.000000 0.000000 0.000000 1.161821 0.537789 6.170195 -5.713598 -11.235863 4.085340 -42.568225 1.619563 6.182156 170.794877 -86.164674 -149.432327 0.000000 0.000000 0.000000 -1.922607 1.721797 5.101649 17.070062 20.946390 11.853916 -0.003028 25.884062 0.675754 -16.140483 78.753898 -13.854623 0.000000 0.000000 0.000000 
-0.146530 36.497135 17.645388 -179.952481 -11.073147 179.123036 -5.444369 -8.674088 14.509572 -1.478258 0.598862 -19.375011 2.914070 13.045642 11.803088 0.777067 -0.749527 7.924041 0.000000 0.000000 0.000000 0.666635 -10.281054 12.966916 -1.565023 -12.986457 -14.218321 -7.810444 1.903661 6.961916 11.489650 5.660255 15.448121 0.000000 0.000000 0.000000 -3.866760 -6.538553 5.666465 -5.599692 9.509069 -14.189569 0.030123 -1.100890 10.589749 -0.033534 -0.005469 -0.077331 0.295043 0.614335 9.584935 10.955996 -6.364001 15.169379 0.000000 0.000000 0.000000 1.252578 0.673468 6.144274 -5.749708 -11.385605 4.265669 -42.599067 0.402408 8.326306 168.497857 -86.526332 -147.004331 0.000000 0.000000 0.000000 -2.009920 1.947204 5.161062 16.668486 21.053332 12.059378 -0.644752 23.395766 -1.789626 -13.229037 74.233337 -10.778196 0.000000 0.000000 0.000000 
-0.146291 36.506817 17.560936 -179.956592 -11.554358 179.117121 -5.436272 -9.047285 14.792909 -1.405887 0.337979 -19.548005 2.878878 12.979984 11.752275 0.904801 -0.824994 8.108033 0.000000 0.000000 0.000000 0.714839 -10.768253 13.109749 -1.789710 -13.338529 -14.065445 -7.527917 1.545757 6.882025 11.674701 5.700667 15.121767 0.000000 0.000000 0.000000 -3.916600 -6.741035 5.825856 -5.528287 9.621883 -14.190691 -0.048430 -1.017953 10.523201 -0.065618 0.006219 -0.109102 0.182863 0.585496 9.545210 10.484222 -6.326101 15.021697 0.000000 0.000000 0.000000 1.164850 0.704230 6.165618 -5.739594 -11.626464 4.317325 -42.404867 -0.792786 10.348198 171.315624 -86.942195 -149.679702 0.000000 0.000000 0.000000 -1.991180 1.914148 5.239339 16.013768 21.181562 12.276910 -0.288758 20.193726 -2.014776 -11.503589 69.770854 -8.899878 0.000000 0.000000 0.000000 
-0.143047 36.507126 17.448530 179.973599 -12.049559 179.129866 -5.468547 -9.372363 15.093962 -1.286708 -0.055327 -19.748237 2.847124 12.849733 11.834467 1.091235 -0.916389 8.189633 0.000000 0.000000 0.000000 0.688919 -11.176200 13.260286 -1.957994 -13.567908 -13.903260 -7.204264 1.441693 6.904219 11.499686 5.774760 14.700053 0.000000 0.000000 0.000000 -3.961657 -6.953249 5.986676 -5.517505 9.661926 -14.283326 -0.141076 -1.004010 10.478357 -0.028107 -0.012363 -0.086784 -0.053970 0.565243 9.420736 9.937558 -6.058172 14.816121 0.000000 0.000000 0.000000 0.978787 0.748245 6.119348 -5.793019 -11.581074 4.387846 -42.172938 -1.652087 12.397363 170.538171 -87.096469 -148.750537 0.000000 0.000000 0.000000 -2.085001 2.038376 5.256071 15.211596 21.510776 12.532280 0.896258 16.646510 -0.351434 -10.730335 66.003547 -8.019542 0.000000 0.000000 0.000000 
-0.132908 36.501682 17.314058 179.976878 -12.571425 179.144182 -5.464789 -9.655684 15.311307 -1.129803 -0.509854 -19.927490 2.821627 12.670583 12.000082 1.307515 -1.012399 8.106117 0.000000 0.000000 0.000000 0.674057 -11.561827 13.394430 -1.887127 -13.688721 -13.709428 -7.174389 1.589627 6.972440 11.239989 5.848908 14.301438 0.000000 0.000000 0.000000 -3.979071 -7.276744 6.020060 -5.458900 9.675230 -14.302782 -0.223590 -0.924552 10.445103 -0.059267 0.001793 -0.097998 -0.161874 0.617847 9.354072 9.511922 -5.934946 14.418782 0.000000 0.000000 0.000000 1.003418 0.806896 6.180432 -5.870932 -11.394297 4.492151 -42.091802 -2.105854 14.139972 168.882574 -87.092090 -146.971587 0.000000 0.000000 0.000000 -2.204898 2.119834 5.434399 14.506106 21.859047 12.846455 2.506351 13.082682 2.587360 -10.281871 63.471172 -7.529296 0.000000 0.000000 0.000000 
-0.117391 36.496353 17.180029 179.960376 -13.057381 179.143089 -5.471765 -9.833511 15.460924 -0.965104 -0.959652 -20.001717 2.824455 12.486972 12.226880 1.507206 -1.098328 8.010460 0.000000 0.000000 0.000000 0.644556 -11.849425 13.507160 -1.721250 -13.736596 -13.512518 -7.401610 1.907026 7.083669 10.993138 6.027486 13.888617 0.000000 0.000000 0.000000 -3.982796 -7.373048 6.208239 -5.568107 9.579418 -14.485378 -0.276749 -0.933928 10.350044 0.025357 -0.040048 -0.044347 -0.148465 0.498782 9.401469 9.250847 -5.784775 14.136054 0.000000 0.000000 0.000000 0.941542 0.844503 6.319899 -5.974589 -11.069032 4.528961 -41.841520 -2.221149 15.529472 172.228684 -86.948281 -150.236103 0.000000 0.000000 0.000000 -2.146163 2.190746 5.647869 13.897493 22.063312 13.089758 4.141606 9.800241 6.094758 -10.094788 62.492870 -7.361557 0.000000 0.000000 0.000000 
-0.092824 36.492493 17.047121 179.943793 -13.375480 179.158239 -5.481154 -9.824910 15.497773 -0.837213 -1.331450 -20.003553 2.828910 12.301899 12.365421 1.664640 -1.152398 7.846433 0.000000 0.000000 0.000000 0.617632 -11.924184 13.608355 -1.584750 -13.621291 -13.360510 -7.538397 2.258330 7.238722 10.606107 6.168526 13.575931 0.000000 0.000000 0.000000 -4.022426 -7.388806 6.178685 -5.536611 9.458254 -14.524022 -0.307677 -1.006747 10.476935 -0.016819 0.022653 -0.110854 -0.186473 0.543186 9.446303 8.989740 -5.573396 13.984405 0.000000 0.000000 0.000000 0.976299 0.864613 6.428855 -6.032537 -10.657326 4.638755 -41.722644 -2.046015 16.572822 172.381817 -86.842843 -150.360905 0.000000 0.000000 0.000000 -2.240643 2.237319 5.779050 13.566854 22.164964 13.466049 5.664516 6.970352 9.427784 -10.405194 63.184243 -7.738446 0.000000 0.000000 0.000000 
-0.055756 36.496796 16.939713 179.914245 -13.503121 179.179986 -5.503849 -9.659995 15.474681 -0.735230 -1.581725 -19.897712 2.856972 12.142410 12.429694 1.744078 -1.182576 7.717818 0.000000 0.000000 0.000000 0.633767 -11.791182 13.697325 -1.533671 -13.478606 -13.258626 -7.673449 2.343355 7.434591 10.484138 6.185481 13.344888 0.000000 0.000000 0.000000 -4.065572 -7.354456 6.179790 -5.554148 9.129519 -14.594622 -0.241210 -0.817945 10.555041 -0.025220 -0.027170 -0.078537 -0.260680 0.714595 9.508853 8.677811 -5.558689 13.876165 0.000000 0.000000 0.000000 0.971734 0.942402 6.466768 -6.055751 -10.215992 4.644865 -41.409545 -1.718025 17.301581 176.025846 -86.701527 -154.034071 0.000000 0.000000 0.000000 -2.210115 2.194987 5.893743 13.453026 22.184731 13.719237 6.780816 4.897547 12.425779 -10.996203 65.324257 -8.446215 0.000000 0.000000 0.000000 
-0.016062 36.503220 16.868103 179.884575 -13.447007 179.196638 -5.504133 -9.408047 15.390839 -0.654583 -1.669433 -19.709085 2.882517 12.062615 12.446779 1.696018 -1.209017 7.626908 0.000000 0.000000 0.000000 0.616982 -11.514120 13.770122 -1.399285 -13.356662 -13.197578 -7.737634 2.518590 7.623278 10.254369 6.005089 13.221937 0.000000 0.000000 0.000000 -4.090196 -7.054506 6.168471 -5.646978 8.878277 -14.697257 -0.228993 -0.892256 10.655071 0.016798 0.010467 -0.061306 -0.131506 0.563806 9.619771 8.700106 -5.430150 13.941782 0.000000 0.000000 0.000000 1.100502 0.835928 6.619677 -6.084259 -9.839793 4.629964 -41.353619 -1.203423 17.942781 174.664698 -86.550764 -152.758287 0.000000 0.000000 0.000000 -2.228551 2.241915 5.966322 13.580348 21.914464 13.928583 7.554626 3.561775 14.933039 -11.897019 68.574505 -9.481040 0.000000 0.000000 0.000000 
0.018550 36.512001 16.829809 179.899547 -13.134784 179.194357 -5.481951 -9.082216 15.260494 -0.606348 -1.611471 -19.487006 2.930457 12.033814 12.403244 1.600039 -1.185499 7.482068 0.000000 0.000000 0.000000 0.655190 -11.140161 13.735892 -1.296486 -13.074316 -13.189565 -7.914767 2.632702 7.730383 10.178913 5.883749 13.281522 0.000000 0.000000 0.000000 -4.103874 -6.713375 6.189352 -5.711650 8.637673 -14.766560 -0.192464 -1.006024 10.719910 0.079612 0.076337 -0.050523 -0.073299 0.576380 9.791318 8.678329 -5.416548 14.023961 0.000000 0.000000 0.000000 1.102178 0.808374 6.707517 -6.049470 -9.537250 4.598484 -41.231895 -0.772570 18.290055 175.985602 -86.500384 -154.225098 0.000000 0.000000 0.000000 -2.139870 2.267226 5.950139 13.851779 21.537758 14.053374 7.835083 3.165164 17.027966 -13.450396 72.413966 -11.187715 0.000000 0.000000 0.000000 
0.045810 36.518032 16.816214 179.903331 -12.716504 179.206556 -5.465903 -8.854396 15.099161 -0.601131 -1.445500 -19.220216 2.997492 12.099456 12.402150 1.424225 -1.158940 7.389844 0.000000 0.000000 0.000000 0.650858 -10.834602 13.653718 -1.180342 -12.751550 -13.204405 -8.075039 2.749432 7.757144 10.164139 5.717002 13.375853 0.000000 0.000000 0.000000 -4.089719 -6.655693 6.026965 -5.707068 8.312793 -14.639249 -0.136367 -0.891433 10.858352 0.031944 0.013065 -0.063480 -0.037586 0.571811 9.883892 8.584815 -5.385488 14.240097 0.000000 0.000000 0.000000 1.147950 0.892350 6.689231 -6.053746 -9.251723 4.660641 -41.061940 -0.456664 18.651577 173.891029 -86.598835 -152.322658 0.000000 0.000000 0.000000 -2.176411 2.300967 6.019900 14.290717 21.506635 14.144476 7.953363 3.759841 18.693024 -15.947223 76.414258 -13.845441 0.000000 0.000000 0.000000 
0.066937 36.524845 16.822611 179.912456 -12.121455 179.193537 -5.464483 -8.609901 14.933444 -0.651951 -1.166373 -18.939595 3.079753 12.191412 12.389552 1.245100 -1.106841 7.329109 0.000000 0.000000 0.000000 0.657707 -10.507226 13.513616 -1.126868 -12.420544 -13.221887 -8.233934 2.793962 7.781121 10.264764 5.586641 13.544532 0.000000 0.000000 0.000000 -4.107030 -6.439849 5.951641 -5.634139 8.101112 -14.528458 -0.129560 -0.902373 10.967651 -0.002681 0.001500 -0.082042 0.046124 0.722850 10.033204 8.561601 -5.648318 14.513315 0.000000 0.000000 0.000000 1.220081 0.905605 6.841737 -5.990986 -9.138797 4.726630 -40.996848 -0.336766 18.574518 174.327123 -86.749836 -152.980309 0.000000 0.000000 0.000000 -2.164490 2.409135 5.990653 14.855221 21.321735 14.280002 7.724127 4.863647 19.593922 -20.241283 80.170848 -18.279548 0.000000 0.000000 0.000000 
0.086285 36.531857 16.846638 179.925132 -11.450886 179.208249 -5.468011 -8.400468 14.769855 -0.716342 -0.855553 -18.690058 3.194026 12.299738 12.364726 1.082218 -1.053888 7.321060 0.000000 0.000000 0.000000 0.693390 -10.216801 13.358773 -1.130997 -12.119229 -13.287273 -8.364655 2.746985 7.777239 10.481329 5.509243 13.719732 0.000000 0.000000 0.000000 -4.126385 -6.176041 5.869524 -5.527668 7.927362 -14.379823 -0.054728 -0.907395 11.094222 -0.024024 0.003323 -0.040755 0.001093 0.841615 10.100298 8.317061 -5.902748 14.735095 0.000000 0.000000 0.000000 1.233333 0.892241 6.894672 -5.926323 -9.102171 4.515851 -41.026218 -0.245480 18.848899 172.141312 -86.941936 -151.019963 0.000000 0.000000 0.000000 -2.223960 2.398630 5.934672 15.438997 21.186880 14.246394 7.290868 6.513374 19.525023 -27.802944 83.216839 -26.005785 0.000000 0.000000 0.000000 
0.107700 36.538685 16.879095 179.934572 -10.695246 179.203646 -5.434507 -8.134250 14.643144 -0.798953 -0.507535 -18.507658 3.284705 12.412563 12.291116 0.950791 -1.024057 7.292413 0.000000 0.000000 0.000000 0.689283 -9.855948 13.225924 -1.094346 -11.886089 -13.397565 -8.397283 2.752254 7.756937 10.563867 5.368337 13.964643 0.000000 0.000000 0.000000 -4.157540 -6.250152 5.849936 -5.443587 7.898645 -14.251541 -0.052021 -0.737189 11.163434 0.030729 0.120793 -0.116344 0.143453 0.668315 10.215891 8.245867 -6.055498 14.892862 0.000000 0.000000 0.000000 1.222431 0.898150 6.954324 -5.878816 -9.198425 4.489706 -41.220253 -0.339466 19.118581 170.640829 -87.044744 -149.732664 0.000000 0.000000 0.000000 -2.091654 2.279966 5.953147 15.981149 21.035712 14.174180 6.658496 8.125688 18.388112 -41.227804 85.511052 -39.685885 0.000000 0.000000 0.000000 
